<?xml version="1.0" encoding="UTF-8"?>
<svg id="Layer_1" data-name="Layer 1" xmlns="http://www.w3.org/2000/svg" viewBox="0 0 1920 1080">
  <defs>
    <style>
      .cls-1 {
        fill: #603813;
      }
    </style>
  </defs>
  <path class="cls-1" d="M704.32,482.79V192.27h49.3v290.52h-49.3Z"/>
  <path class="cls-1" d="M586.75,480.9V192.27h49.3v288.63h-49.3Z"/>
  <path class="cls-1" d="M1055.4,551.63l1-222.69c0-39.71,11.42-72.42,34.28-98.12,23.02-25.7,51.55-38.55,85.59-38.55,37.04,0,67.15,12.85,90.34,38.55,22.86,26.06,34.29,62.81,34.29,110.24v210.57h-48.3v-141.56h-128.88v-49.6h128.88c0-79.79-24.36-119.68-73.07-119.68-26.69,0-46.71,10.87-60.06,32.62-9.85,16.17-14.76,34.68-14.76,55.53v222.69h-49.3Z"/>
  <path class="cls-1" d="M763.97,747.1v-83.48c0-26.92,9.04-49.01,27.14-66.28,17.85-17.02,39.01-25.53,63.5-25.53,31.36,0,55.3,11.47,71.83,34.41,12.78,17.75,19.17,37.67,19.17,59.76v83.48c0,21.97-7.42,41.83-22.25,59.58-17.49,21.13-40.4,31.69-68.75,31.69-29.91,0-53.13-10.8-69.65-32.42-13.99-17.75-20.99-38.15-20.99-61.21ZM908.12,746.37v-80.4c0-19.8-4.92-34.62-14.76-44.46-9.84-9.84-22.79-14.76-38.84-14.76s-29.52,5.25-38.57,15.76c-9.42,10.62-14.12,24.63-14.12,42.01v78.23c0,21.25,4.55,37.06,13.67,47.45,9.11,10.38,22.12,15.57,39.03,15.57s29.39-5.07,39.3-15.21c9.53-9.9,14.31-24.63,14.31-44.19Z"/>
  <path class="cls-1" d="M1173.05,747.1c0-16.78,2.84-30.97,8.53-42.56,2.3-4.47,9.31-14.85,21.04-31.15l68.76-97.25h43.46l-71.71,99.78c-10.14,13.88-16.9,23.79-20.28,29.7-8.69,14.61-13.04,29.82-13.04,45.64,0,14.01,5.19,26.74,15.57,38.21,11.35,12.31,25.47,18.47,42.38,18.47s30.36-5.79,42.19-17.38c11.59-11.35,17.39-25.59,17.39-42.74,0-21.01-6.52-36.94-19.56-47.81-13.16-10.62-31.09-15.94-53.79-15.94l21.19-29.7c28.36,0,50.58,9.66,66.64,28.97,14.36,17.27,21.55,38.27,21.55,63.02s-8.16,45.4-24.47,63.38c-18.37,20.04-42.11,30.06-71.23,30.06-26.59,0-48.94-8.87-67.07-26.62-18.37-17.63-27.55-39.66-27.55-66.1Z"/>
  <path class="cls-1" d="M560.24,655.1c0-22.7,7.91-41.95,23.72-57.77,17.14-17.02,39.18-25.53,66.1-25.53,29.94,0,52.7,10.26,68.27,30.79,11.59,15.21,17.38,32.23,17.38,51.07,0,17.02-3.32,31.39-9.96,43.1-7.85,13.52-23.18,29.1-46,46.72l-77.51,60.12h132.02v32.6h-136.9c-13.64,0-23.79-2.35-30.42-7.06-6.88-4.71-10.32-10.8-10.32-18.29,0-5.43,1.33-10.62,3.98-15.57,2.53-4.59,6.03-8.39,10.5-11.41l100.14-78.23c9.06-7.24,16.18-15.15,21.37-23.72,4.95-8.45,7.43-18.35,7.43-29.7,0-12.68-4.41-23.54-13.22-32.6-9.9-10.14-23.18-15.21-39.84-15.21s-28.49,5.55-38.03,16.66c-8.69,9.9-13.04,21.49-13.04,34.77,0,16.9,6.16,30.18,18.47,39.84,8.93,6.88,19.2,11.17,30.79,12.86l-31.15,24.09c-17.02-6.64-30.24-16.66-39.66-30.06-9.42-13.04-14.12-28.85-14.12-47.44Z"/>
  <path class="cls-1" d="M973.49,655.1c0-22.7,7.9-41.95,23.72-57.77,17.14-17.02,39.18-25.53,66.1-25.53,29.94,0,52.7,10.26,68.27,30.79,11.59,15.21,17.38,32.23,17.38,51.07,0,17.02-3.32,31.39-9.96,43.1-7.85,13.52-23.18,29.1-46,46.72l-77.51,60.12h132.02v32.6h-136.91c-13.64,0-23.79-2.35-30.42-7.06-6.88-4.71-10.32-10.8-10.32-18.29,0-5.43,1.32-10.62,3.98-15.57,2.53-4.59,6.03-8.39,10.51-11.41l100.14-78.23c9.06-7.24,16.18-15.15,21.37-23.72,4.95-8.45,7.43-18.35,7.43-29.7,0-12.68-4.41-23.54-13.22-32.6-9.9-10.14-23.18-15.21-39.83-15.21s-28.5,5.55-38.03,16.66c-8.69,9.9-13.04,21.49-13.04,34.77,0,16.9,6.16,30.18,18.47,39.84,8.93,6.88,19.19,11.17,30.79,12.86l-31.15,24.09c-17.02-6.64-30.24-16.66-39.66-30.06-9.42-13.04-14.12-28.85-14.12-47.44Z"/>
  <g>
    <path class="cls-1" d="M962.97,364.94c-.54-.37-1.12-.68-1.73-.98-5.03-2.55-20.31-9.88-45.81-22.04-20.82-9.85-38.72-20.1-53.73-30.77-5.16-3.33-9.34-7.91-12.5-13.75-3.02-5.84-4.52-11.85-4.52-18.03,0-11.85,3.84-21.94,11.51-30.29,7.51-7.81,18.07-11.75,31.75-11.75h104.16v-45.03h-104.16c-22.86,0-42.99,7.34-60.52,22.01-19.8,16.84-29.72,39.22-29.72,67.07,0,21.19,6.66,39.7,19.97,55.56,9.85,11.51,26.25,23.6,49.24,36.27,20.85,10.7,41.84,21.12,63,31.28,15.35,7.51,27.27,15.86,35.76,25.03,8.66,9.34,13.01,19.63,13.01,30.8v2.99c0,1.49-.17,2.92-.51,4.25-2.17,14.03-8.08,23.94-17.76,29.78-9.47,6.18-22.65,9.27-39.5,9.27h-23.83v-.17h-127.1v45.03l18.54.18v-.17l18.09.17v-.17l18.09.17v-.17l18.09.17v-.17l18.09.17v-.17l18.09.17v-.17l15.06.15v.02h3.04s0,0,0,0h27.83c36.17,0,63.1-10.77,80.76-32.26,13.65-16.54,20.48-36.54,20.48-60.08,0-21.19-7.17-40.79-21.5-58.79-10.83-13.48-24.72-25.33-41.7-35.56Z"/>
    <polygon class="cls-1" points="762.73 506.42 759.45 506.42 759.37 506.42 756.09 506.42 756 506.42 752.72 506.42 752.64 506.42 749.35 506.42 749.27 506.42 745.99 506.42 745.9 506.42 742.54 506.42 742.54 551.45 745.99 551.63 745.99 551.46 749.35 551.63 749.35 551.46 752.72 551.63 752.72 551.46 756.09 551.63 756.09 551.46 759.45 551.63 759.45 551.46 762.82 551.63 762.82 551.46 766.18 551.63 766.18 506.42 762.82 506.42 762.73 506.42"/>
    <polygon class="cls-1" points="736.53 506.42 734.61 506.42 734.56 506.42 732.65 506.42 732.6 506.42 730.68 506.42 730.63 506.42 728.71 506.42 728.66 506.42 726.74 506.42 726.7 506.42 724.73 506.42 724.73 551.45 726.74 551.63 726.74 551.46 728.71 551.63 728.71 551.46 730.68 551.63 730.68 551.46 732.65 551.63 732.65 551.46 734.61 551.63 734.61 551.46 736.58 551.63 736.58 551.46 738.55 551.63 738.55 506.42 736.58 506.42 736.53 506.42"/>
    <polygon class="cls-1" points="719.39 506.42 718.38 506.42 718.35 506.42 717.34 506.42 717.31 506.42 716.3 506.42 716.27 506.42 715.26 506.42 715.23 506.42 714.22 506.42 714.19 506.42 713.15 506.42 713.15 551.45 714.22 551.63 714.22 551.46 715.26 551.63 715.26 551.46 716.3 551.63 716.3 551.46 717.34 551.63 717.34 551.46 718.38 551.63 718.38 551.46 719.42 551.63 719.42 551.46 720.46 551.63 720.46 506.42 719.42 506.42 719.39 506.42"/>
    <polygon class="cls-1" points="708.11 506.42 707.37 506.42 707.35 506.42 706.61 506.42 706.59 506.42 705.86 506.42 705.84 506.42 705.1 506.42 705.08 506.42 704.34 506.42 704.33 506.42 703.57 506.42 703.57 551.45 704.34 551.63 704.34 551.46 705.1 551.63 705.1 551.46 705.86 551.63 705.86 551.46 706.61 551.63 706.61 551.46 707.37 551.63 707.37 551.46 708.13 551.63 708.13 551.46 708.88 551.63 708.88 506.42 708.13 506.42 708.11 506.42"/>
    <polygon class="cls-1" points="698.29 506.42 697.82 506.42 697.81 506.42 697.33 506.42 697.32 506.42 696.85 506.42 696.83 506.42 696.36 506.42 696.35 506.42 695.87 506.42 695.86 506.42 695.37 506.42 695.37 551.45 695.87 551.63 695.87 551.46 696.36 551.63 696.36 551.46 696.85 551.63 696.85 551.46 697.33 551.63 697.33 551.46 697.82 551.63 697.82 551.46 698.3 551.63 698.3 551.46 698.79 551.63 698.79 506.42 698.3 506.42 698.29 506.42"/>
    <polygon class="cls-1" points="687.16 506.42 686.69 506.42 686.68 506.42 686.2 506.42 686.19 506.42 685.72 506.42 685.7 506.42 685.23 506.42 685.22 506.42 684.74 506.42 684.73 506.42 684.25 506.42 684.25 551.45 684.74 551.63 684.74 551.46 685.23 551.63 685.23 551.46 685.72 551.63 685.72 551.46 686.2 551.63 686.2 551.46 686.69 551.63 686.69 551.46 687.18 551.63 687.18 551.46 687.66 551.63 687.66 506.42 687.18 506.42 687.16 506.42"/>
    <polygon class="cls-1" points="677.68 506.42 677.46 506.42 677.46 506.42 677.24 506.42 677.23 506.42 677.02 506.42 677.01 506.42 676.79 506.42 676.79 506.42 676.57 506.42 676.57 506.42 676.34 506.42 676.34 551.45 676.57 551.63 676.57 551.46 676.79 551.63 676.79 551.46 677.02 551.63 677.02 551.46 677.24 551.63 677.24 551.46 677.46 551.63 677.46 551.46 677.68 551.63 677.68 551.46 677.91 551.63 677.91 506.42 677.68 506.42 677.68 506.42"/>
    <polygon class="cls-1" points="666.5 506.42 666.37 506.42 666.37 506.42 666.24 506.42 666.24 506.42 666.11 506.42 666.1 506.42 665.97 506.42 665.97 506.42 665.84 506.42 665.84 506.42 665.71 506.42 665.71 551.45 665.84 551.63 665.84 551.46 665.97 551.63 665.97 551.46 666.11 551.63 666.11 551.46 666.24 551.63 666.24 551.46 666.37 551.63 666.37 551.46 666.51 551.63 666.51 551.46 666.64 551.63 666.64 506.42 666.51 506.42 666.5 506.42"/>
    <polygon class="cls-1" points="656.26 506.42 656.17 506.42 656.17 506.42 656.08 506.42 656.07 506.42 655.98 506.42 655.98 506.42 655.89 506.42 655.89 506.42 655.79 506.42 655.79 506.42 655.7 506.42 655.7 551.45 655.79 551.63 655.79 551.46 655.89 551.63 655.89 551.46 655.98 551.63 655.98 551.46 656.08 551.63 656.08 551.46 656.17 551.63 656.17 551.46 656.26 551.63 656.26 551.46 656.36 551.63 656.36 506.42 656.26 506.42 656.26 506.42"/>
    <polygon class="cls-1" points="1006.5 237.48 1008.71 237.48 1008.77 237.48 1010.98 237.48 1011.04 237.48 1013.25 237.48 1013.3 237.48 1015.52 237.48 1015.57 237.48 1017.79 237.48 1017.84 237.48 1020.11 237.48 1020.11 192.45 1017.79 192.27 1017.79 192.45 1015.52 192.27 1015.52 192.45 1013.25 192.27 1013.25 192.45 1010.98 192.27 1010.98 192.45 1008.71 192.27 1008.71 192.45 1006.45 192.27 1006.45 192.45 1004.18 192.27 1004.18 237.48 1006.45 237.48 1006.5 237.48"/>
    <polygon class="cls-1" points="1030.75 192.45 1029.43 192.27 1029.43 192.45 1028.1 192.27 1028.1 192.45 1026.78 192.27 1026.78 192.45 1025.45 192.27 1025.45 192.45 1024.12 192.27 1024.12 192.45 1022.8 192.27 1022.8 237.48 1024.12 237.48 1024.16 237.48 1025.45 237.48 1025.48 237.48 1026.78 237.48 1026.81 237.48 1028.1 237.48 1028.13 237.48 1029.43 237.48 1029.46 237.48 1030.75 237.48 1030.78 237.48 1032.11 237.48 1032.11 192.45 1030.75 192.27 1030.75 192.45"/>
    <polygon class="cls-1" points="1039.19 192.45 1038.49 192.27 1038.49 192.45 1037.79 192.27 1037.79 192.45 1037.09 192.27 1037.09 192.45 1036.39 192.27 1036.39 192.45 1035.69 192.27 1035.69 192.45 1034.99 192.27 1034.99 237.48 1035.69 237.48 1035.7 237.48 1036.39 237.48 1036.41 237.48 1037.09 237.48 1037.11 237.48 1037.79 237.48 1037.81 237.48 1038.49 237.48 1038.51 237.48 1039.19 237.48 1039.21 237.48 1039.91 237.48 1039.91 192.45 1039.19 192.27 1039.19 192.45"/>
    <polygon class="cls-1" points="1045.84 192.45 1045.34 192.27 1045.34 192.45 1044.83 192.27 1044.83 192.45 1044.32 192.27 1044.32 192.45 1043.81 192.27 1043.81 192.45 1043.3 192.27 1043.3 192.45 1042.79 192.27 1042.79 237.48 1043.3 237.48 1043.31 237.48 1043.81 237.48 1043.82 237.48 1044.32 237.48 1044.33 237.48 1044.83 237.48 1044.84 237.48 1045.34 237.48 1045.35 237.48 1045.84 237.48 1045.86 237.48 1046.37 237.48 1046.37 192.45 1045.84 192.27 1045.84 192.45"/>
    <polygon class="cls-1" points="1051.55 192.45 1051.22 192.27 1051.22 192.45 1050.9 192.27 1050.9 192.45 1050.57 192.27 1050.57 192.45 1050.24 192.27 1050.24 192.45 1049.91 192.27 1049.91 192.45 1049.59 192.27 1049.59 237.48 1049.91 237.48 1049.92 237.48 1050.24 237.48 1050.25 237.48 1050.57 237.48 1050.58 237.48 1050.9 237.48 1050.91 237.48 1051.22 237.48 1051.23 237.48 1051.55 237.48 1051.56 237.48 1051.89 237.48 1051.89 192.45 1051.55 192.27 1051.55 192.45"/>
    <polygon class="cls-1" points="1059.05 192.45 1058.72 192.27 1058.72 192.45 1058.4 192.27 1058.4 192.45 1058.07 192.27 1058.07 192.45 1057.74 192.27 1057.74 192.45 1057.41 192.27 1057.41 192.45 1057.09 192.27 1057.09 237.48 1057.41 237.48 1057.42 237.48 1057.74 237.48 1057.75 237.48 1058.07 237.48 1058.08 237.48 1058.4 237.48 1058.4 237.48 1058.72 237.48 1058.73 237.48 1059.05 237.48 1059.06 237.48 1059.39 237.48 1059.39 192.45 1059.05 192.27 1059.05 192.45"/>
    <polygon class="cls-1" points="1064.56 192.45 1064.41 192.27 1064.41 192.45 1064.26 192.27 1064.26 192.45 1064.11 192.27 1064.11 192.45 1063.96 192.27 1063.96 192.45 1063.81 192.27 1063.81 192.45 1063.66 192.27 1063.66 237.48 1063.81 237.48 1063.81 237.48 1063.96 237.48 1063.96 237.48 1064.11 237.48 1064.11 237.48 1064.26 237.48 1064.26 237.48 1064.41 237.48 1064.41 237.48 1064.56 237.48 1064.56 237.48 1064.71 237.48 1064.71 192.45 1064.56 192.27 1064.56 192.45"/>
    <polygon class="cls-1" points="1071.79 192.45 1071.7 192.27 1071.7 192.45 1071.61 192.27 1071.61 192.45 1071.52 192.27 1071.52 192.45 1071.43 192.27 1071.43 192.45 1071.34 192.27 1071.34 192.45 1071.25 192.27 1071.25 237.48 1071.34 237.48 1071.34 237.48 1071.43 237.48 1071.43 237.48 1071.52 237.48 1071.52 237.48 1071.61 237.48 1071.61 237.48 1071.7 237.48 1071.7 237.48 1071.79 237.48 1071.79 237.48 1071.88 237.48 1071.88 192.45 1071.79 192.27 1071.79 192.45"/>
    <polygon class="cls-1" points="1078.56 192.27 1078.56 192.45 1078.49 192.27 1078.49 192.45 1078.43 192.27 1078.43 192.45 1078.37 192.27 1078.37 192.45 1078.3 192.27 1078.3 192.45 1078.24 192.27 1078.24 192.45 1078.18 192.27 1078.18 237.48 1078.24 237.48 1078.24 237.48 1078.3 237.48 1078.31 237.48 1078.37 237.48 1078.37 237.48 1078.43 237.48 1078.43 237.48 1078.49 237.48 1078.5 237.48 1078.56 237.48 1078.56 237.48 1078.62 237.48 1078.62 192.45 1078.56 192.27"/>
  </g>
</svg>