<?xml version="1.0" encoding="UTF-8"?>
<svg id="Layer_1" data-name="Layer 1" xmlns="http://www.w3.org/2000/svg" xmlns:xlink="http://www.w3.org/1999/xlink" viewBox="0 0 1920 1080">
  <defs>
    <style>
      .cls-1 {
        stroke: url(#Degradado_sin_nombre_4313-2);
        stroke-width: .49px;
      }

      .cls-1, .cls-2, .cls-3, .cls-4, .cls-5, .cls-6, .cls-7, .cls-8, .cls-9, .cls-10, .cls-11, .cls-12, .cls-13, .cls-14, .cls-15, .cls-16, .cls-17, .cls-18, .cls-19, .cls-20, .cls-21, .cls-22, .cls-23, .cls-24 {
        fill: none;
        stroke-miterlimit: 10;
      }

      .cls-2 {
        stroke: url(#Degradado_sin_nombre_4313-23);
        stroke-width: .26px;
      }

      .cls-3 {
        stroke: url(#Degradado_sin_nombre_4313-18);
        stroke-width: .32px;
      }

      .cls-4 {
        stroke: url(#Degradado_sin_nombre_4313-3);
        stroke-width: .48px;
      }

      .cls-5 {
        stroke: url(#Degradado_sin_nombre_4313-14);
        stroke-width: .36px;
      }

      .cls-6 {
        stroke: url(#Degradado_sin_nombre_4313-21);
        stroke-width: .28px;
      }

      .cls-7 {
        stroke: url(#Degradado_sin_nombre_4313-11);
        stroke-width: .39px;
      }

      .cls-8 {
        stroke: url(#Degradado_sin_nombre_4313-8);
        stroke-width: .42px;
      }

      .cls-9 {
        stroke: url(#Degradado_sin_nombre_4313-17);
        stroke-width: .33px;
      }

      .cls-10 {
        stroke: url(#Degradado_sin_nombre_4313-10);
        stroke-width: .4px;
      }

      .cls-11 {
        stroke: url(#Degradado_sin_nombre_4313-9);
        stroke-width: .41px;
      }

      .cls-12 {
        stroke: url(#Degradado_sin_nombre_4313-24);
        stroke-width: .25px;
      }

      .cls-13 {
        stroke: url(#Degradado_sin_nombre_4313-12);
        stroke-width: .38px;
      }

      .cls-14 {
        stroke: url(#Degradado_sin_nombre_4313-22);
        stroke-width: .27px;
      }

      .cls-15 {
        stroke: url(#Degradado_sin_nombre_4313-16);
        stroke-width: .34px;
      }

      .cls-16 {
        stroke: url(#Degradado_sin_nombre_4313-4);
        stroke-width: .47px;
      }

      .cls-17 {
        stroke: url(#Degradado_sin_nombre_4313-13);
        stroke-width: .37px;
      }

      .cls-18 {
        stroke: url(#Degradado_sin_nombre_4313-15);
        stroke-width: .35px;
      }

      .cls-19 {
        stroke: url(#Degradado_sin_nombre_4313-20);
        stroke-width: .29px;
      }

      .cls-20 {
        stroke: url(#Degradado_sin_nombre_4313-6);
        stroke-width: .45px;
      }

      .cls-21 {
        stroke: url(#Degradado_sin_nombre_4313);
        stroke-width: .5px;
      }

      .cls-22 {
        stroke: url(#Degradado_sin_nombre_4313-7);
        stroke-width: .43px;
      }

      .cls-23 {
        stroke: url(#Degradado_sin_nombre_4313-5);
        stroke-width: .46px;
      }

      .cls-24 {
        stroke: url(#Degradado_sin_nombre_4313-19);
        stroke-width: .3px;
      }
    </style>
    <linearGradient id="Degradado_sin_nombre_4313" data-name="Degradado sin nombre 4313" x1="655.75" y1="3240.85" x2="1043.95" y2="3240.85" gradientTransform="translate(-2127.83 1414.71) rotate(-90.21)" gradientUnits="userSpaceOnUse">
      <stop offset="0" stop-color="#ffcb2e"/>
      <stop offset="0" stop-color="#ffca2e" stop-opacity=".77"/>
      <stop offset="0" stop-color="#ffca2e" stop-opacity=".21"/>
      <stop offset="0" stop-color="#ffca2f" stop-opacity="0"/>
      <stop offset=".03" stop-color="#fdbc32" stop-opacity=".18"/>
      <stop offset=".13" stop-color="#f6903e" stop-opacity=".76"/>
      <stop offset=".17" stop-color="#f47f43"/>
      <stop offset=".28" stop-color="#ec555c" stop-opacity=".52"/>
      <stop offset=".39" stop-color="#e42879" stop-opacity="0"/>
      <stop offset=".54" stop-color="#4586c6"/>
      <stop offset=".68" stop-color="#ef5f60" stop-opacity=".04"/>
      <stop offset=".85" stop-color="#695aa6"/>
      <stop offset="1" stop-color="#e42977" stop-opacity=".04"/>
      <stop offset="1" stop-color="#e42977" stop-opacity=".04"/>
    </linearGradient>
    <linearGradient id="Degradado_sin_nombre_4313-2" data-name="Degradado sin nombre 4313" x1="646.65" y1="3234.13" x2="1049.93" y2="3234.13" xlink:href="#Degradado_sin_nombre_4313"/>
    <linearGradient id="Degradado_sin_nombre_4313-3" data-name="Degradado sin nombre 4313" x1="637.41" y1="3227.42" x2="1055.92" y2="3227.42" xlink:href="#Degradado_sin_nombre_4313"/>
    <linearGradient id="Degradado_sin_nombre_4313-4" data-name="Degradado sin nombre 4313" x1="628.13" y1="3220.74" x2="1061.92" y2="3220.74" xlink:href="#Degradado_sin_nombre_4313"/>
    <linearGradient id="Degradado_sin_nombre_4313-5" data-name="Degradado sin nombre 4313" x1="618.81" y1="3214.1" x2="1067.92" y2="3214.1" xlink:href="#Degradado_sin_nombre_4313"/>
    <linearGradient id="Degradado_sin_nombre_4313-6" data-name="Degradado sin nombre 4313" x1="609.44" y1="3207.52" x2="1073.93" y2="3207.52" xlink:href="#Degradado_sin_nombre_4313"/>
    <linearGradient id="Degradado_sin_nombre_4313-7" data-name="Degradado sin nombre 4313" x1="600.04" y1="3200.99" x2="1079.95" y2="3200.99" xlink:href="#Degradado_sin_nombre_4313"/>
    <linearGradient id="Degradado_sin_nombre_4313-8" data-name="Degradado sin nombre 4313" x1="590.62" y1="3194.52" x2="1085.97" y2="3194.52" xlink:href="#Degradado_sin_nombre_4313"/>
    <linearGradient id="Degradado_sin_nombre_4313-9" data-name="Degradado sin nombre 4313" x1="581.17" y1="3188.09" x2="1092" y2="3188.09" xlink:href="#Degradado_sin_nombre_4313"/>
    <linearGradient id="Degradado_sin_nombre_4313-10" data-name="Degradado sin nombre 4313" x1="571.7" y1="3181.71" x2="1098.82" y2="3181.71" xlink:href="#Degradado_sin_nombre_4313"/>
    <linearGradient id="Degradado_sin_nombre_4313-11" data-name="Degradado sin nombre 4313" x1="562.22" y1="3175.35" x2="1114.31" y2="3175.35" xlink:href="#Degradado_sin_nombre_4313"/>
    <linearGradient id="Degradado_sin_nombre_4313-12" data-name="Degradado sin nombre 4313" x1="552.73" y1="3169.03" x2="1129.86" y2="3169.03" xlink:href="#Degradado_sin_nombre_4313"/>
    <linearGradient id="Degradado_sin_nombre_4313-13" data-name="Degradado sin nombre 4313" x1="543.22" y1="3162.73" x2="1145.46" y2="3162.73" xlink:href="#Degradado_sin_nombre_4313"/>
    <linearGradient id="Degradado_sin_nombre_4313-14" data-name="Degradado sin nombre 4313" x1="533.71" y1="3156.43" x2="1161.08" y2="3156.43" xlink:href="#Degradado_sin_nombre_4313"/>
    <linearGradient id="Degradado_sin_nombre_4313-15" data-name="Degradado sin nombre 4313" x1="524.2" y1="3150.14" x2="1176.73" y2="3150.14" xlink:href="#Degradado_sin_nombre_4313"/>
    <linearGradient id="Degradado_sin_nombre_4313-16" data-name="Degradado sin nombre 4313" x1="514.68" y1="3143.84" x2="1192.4" y2="3143.84" xlink:href="#Degradado_sin_nombre_4313"/>
    <linearGradient id="Degradado_sin_nombre_4313-17" data-name="Degradado sin nombre 4313" x1="505.16" y1="3137.53" x2="1208.09" y2="3137.53" xlink:href="#Degradado_sin_nombre_4313"/>
    <linearGradient id="Degradado_sin_nombre_4313-18" data-name="Degradado sin nombre 4313" x1="495.64" y1="3131.2" x2="1223.78" y2="3131.2" xlink:href="#Degradado_sin_nombre_4313"/>
    <linearGradient id="Degradado_sin_nombre_4313-19" data-name="Degradado sin nombre 4313" x1="486.17" y1="3124.83" x2="1239.49" y2="3124.83" xlink:href="#Degradado_sin_nombre_4313"/>
    <linearGradient id="Degradado_sin_nombre_4313-20" data-name="Degradado sin nombre 4313" x1="476.64" y1="3118.43" x2="1255.2" y2="3118.43" xlink:href="#Degradado_sin_nombre_4313"/>
    <linearGradient id="Degradado_sin_nombre_4313-21" data-name="Degradado sin nombre 4313" x1="467.12" y1="3111.98" x2="1270.91" y2="3111.98" xlink:href="#Degradado_sin_nombre_4313"/>
    <linearGradient id="Degradado_sin_nombre_4313-22" data-name="Degradado sin nombre 4313" x1="457.59" y1="3105.49" x2="1286.64" y2="3105.49" xlink:href="#Degradado_sin_nombre_4313"/>
    <linearGradient id="Degradado_sin_nombre_4313-23" data-name="Degradado sin nombre 4313" x1="448.06" y1="3098.95" x2="1302.35" y2="3098.95" xlink:href="#Degradado_sin_nombre_4313"/>
    <linearGradient id="Degradado_sin_nombre_4313-24" data-name="Degradado sin nombre 4313" x1="438.54" y1="3092.36" x2="1318.09" y2="3092.36" xlink:href="#Degradado_sin_nombre_4313"/>
  </defs>
  <path class="cls-21" d="M1041.38,560.63c.05,12.92-22.26,22.91-57.15,32.11-34.89,9.21-193.8,46.85-169.28,107.29,18.89,46.56,114.82,8.41,202.12-57.23,29.1-21.88,54.76-50.57,104.25,9.71,22.3,27.16,68.78,72.5,130.26,88.21,39.99,10.22,75.14,3.98,97.73-3.82,63.52-21.94,78.23-97.86,31.46-137.49-28.76-24.37-85.8-42.11-170.7-26.88-45.65,8.19-83.63-13.03-81.58-35.27,4.45-48.37,148.08-83.38,219.91-106.35,20.13-6.44,36.14-19.4,39.41-32.28,8.7-34.26-31.45-45.18-46.94-38.72-73.2,30.53-182.95,135.43-211.44,72.94-6.93-15.2-14.3-48.22-26.2-50.62-21.12-4.26-10.16,52.21-10.42,68.39-.29,18.6-2.91,45.13-25.45,59.73-29.32,18.98-92.02-13.77-95.99,13.99-3.97,27.76,69.92,13.26,70.01,36.28Z"/>
  <path class="cls-1" d="M1101.5,374.92c-16.97-1.08-9.62,41.95-8.34,66.17.3,5.89-.78,10.09-1.88,12.81-6.38,15.78-11.87,39.44-37.4,50.01-3.27,1.36-6.8,2.18-10.35,2.66-17.06,2.28-38.26,2.53-52.21,5.09-17.03,3.12-36.76,2.56-40.44,17.07-6.69,26.38,64.81,13.6,63.43,36.52-.78,12.91-23.17,22.61-57.18,32.65-36.13,10.66-190.56,50.86-162.25,111.09,23.36,49.68,127.08,5.69,217.17-62.39,18.76-14.25,35.96-26.47,55.2-29.77,14.04-2.41,29.67,5.48,48.1,25.68,2.43,2.67,4.88,5.67,7.41,8.96,19.33,25.18,55.51,66.78,107.74,88.77,8.52,3.59,17.84,6.88,27.66,9.49,41.42,10.83,78.82,3.9,102.75-7.45,60.5-28.68,73.96-103.72,25.37-143.95-23.68-19.61-61.74-31.22-116.05-29.57-17.78.54-36.98,2.35-57.56,5.68-46.08,7.38-83.89-14.8-82.13-37.79,1.16-15.29,15.26-29.37,36.8-41.6,51.03-28.98,136.29-48.32,186.24-66.54,19.59-7.15,35.29-20.33,38.59-34.01,8.83-36.76-31.21-47.24-47.95-40.34-17.24,7.11-36.39,18.39-54.88,28.58-33.55,18.49-66.29,35.37-98,46.5-29.35,10.31-50.36,13.31-61.4-7.37-2.18-4.08-4.5-10.11-7.43-16.73-6-13.58-12.76-29.67-21.01-30.2Z"/>
  <path class="cls-4" d="M1099.77,367.6c-16.75,1.14-6.04,51.35-5.47,77.22.12,6.33-1.57,10.48-4.56,12.35-7.26,14.6-21.26,33.49-49.36,40.28-3.89.94-7.91,1.25-11.76,1.28-20.04.17-43.5,3.41-55.45,10.55-14.08,8.42-37.29,8.3-42.81,23.81-8.85,24.88,59.68,13.95,56.85,36.76-1.6,12.91-24.08,22.4-57.21,33.18-37.39,12.16-187.02,54.82-155.21,114.88,27.98,52.84,139.34,2.96,232.21-67.54,20.69-15.83,39-30.94,58.08-33.27,15.91-1.94,32.12,2.52,51.37,23.61,2.56,2.8,5.09,6.06,7.71,9.69,19.62,27.13,55.29,73.87,111.12,97.95,8.75,3.77,18.74,7.48,29.42,10.37,42.82,11.58,82.26,4.09,107.77-11.07,57.49-34.18,69.67-109.56,19.28-150.41-25.54-20.71-63.54-29.24-117.94-26.63-18.34.88-37.88,2.74-58.58,5.71-46.51,6.57-84.15-16.57-82.67-40.32.96-15.85,14.91-30.51,36.78-42.69,53.63-29.87,139.42-46.71,189.41-67.25,19.04-7.82,34.44-21.26,37.77-35.74,8.95-39.27-30.97-49.29-48.95-41.97-18.31,7.48-38.69,19.67-57.2,28.67-33.72,16.39-64.1,26.21-98.3,36.55-30.85,9.33-50.24,14.74-61.61-2.74-2.07-3.19-4.41-8.31-7.73-14.42-6.87-12.65-14.31-29.4-22.93-28.81Z"/>
  <path class="cls-16" d="M1098.04,360.27c-16.41,3.17-2.39,60.76-2.59,88.27-.05,6.78-2.78,10.66-7.24,11.9-10.74,12.61-30.89,27.24-61.32,30.56-4.53.49-9.04.28-13.17-.09-23.08-2.08-48.67,3.96-58.7,16.02-11.07,13.31-34.66,15.58-45.17,30.54-5.85,24.95,54.54,14.31,50.27,37-2.43,12.92-24.98,22.28-57.24,33.71-38.67,13.7-183.24,58.73-148.18,118.67,32.75,55.99,151.78.47,247.26-72.7,22.66-17.37,42.37-33.12,60.95-36.76,17.71-3.47,34.56-.45,54.64,21.55,2.68,2.93,5.3,6.46,8.02,10.42,19.93,29.07,55.06,80.95,114.5,107.12,8.98,3.95,19.64,8.05,31.19,11.25,44.24,12.23,85.61,4.55,112.79-14.7,54.68-38.73,65.37-115.37,13.19-156.87-27.41-21.8-65.35-27.22-119.84-23.69-18.91,1.23-38.79,3.13-59.61,5.75-46.94,5.75-84.4-18.34-83.22-42.84.76-16.42,14.56-31.65,36.75-43.78,56.24-30.76,142.53-45.04,192.57-67.95,18.5-8.47,33.6-22.19,36.95-37.47,9.07-41.77-30.73-51.35-49.96-43.59-19.39,7.85-41,20.95-59.53,28.76-33.9,14.28-61.89,17.08-98.6,26.6-32.34,8.38-49.99,15.89-61.82,1.89-1.98-2.35-4.34-6.53-8.04-12.12-7.79-11.76-15.77-29.19-24.86-27.43Z"/>
  <path class="cls-23" d="M1096.31,352.95c-16.02,5.02,1.21,70.17.28,99.33-.23,7.22-3.99,10.84-9.92,11.44-14.22,10.61-40.61,20.74-73.27,20.84-5.19.02-10.16-.72-14.59-1.47-26.12-4.45-54.03,4.32-61.94,21.49-8.28,17.97-34.18,21.93-47.53,37.28-6.48,24.01,49.4,14.67,43.68,37.24-3.27,12.92-25.87,22.23-57.27,34.24-39.97,15.29-179.28,62.57-141.14,122.47,37.64,59.12,164.07-2.21,262.31-77.86,24.6-18.95,45.75-35.55,63.83-40.26,19.57-5.11,37.01-3.42,57.91,19.48,2.8,3.07,5.51,6.85,8.32,11.15,20.25,30.99,54.84,88.01,117.87,116.29,9.21,4.13,20.54,8.63,32.96,12.13,45.66,12.87,88.98,5.23,117.81-18.33,52.12-42.59,61.04-121.17,7.1-163.33-29.29-22.89-67.15-25.17-121.73-20.74-19.47,1.58-39.69,3.56-60.63,5.79-47.36,5.04-84.66-20.1-83.76-45.37.57-16.98,14.22-32.78,36.73-44.87,58.85-31.63,145.61-43.31,195.73-68.65,17.95-9.08,32.75-23.12,36.13-39.2,9.19-44.28-30.5-53.41-50.96-45.22-20.47,8.22-43.31,22.23-61.86,28.85-34.11,12.17-59.66,7.98-98.9,16.65-33.81,7.47-52.25,19.04-62.04,6.52-2.24-1.12-4.29-4.76-8.35-9.81-8.74-10.9-17.19-29.05-26.79-26.05Z"/>
  <path class="cls-20" d="M1094.58,345.63c-15.63,6.69,4.81,79.58,3.16,110.38-.41,7.66-5.2,11.02-12.61,10.98-17.71,8.62-50.33,14.04-85.23,11.12-5.85-.49-11.28-1.73-16-2.85-29.15-6.92-59.58,4.66-65.18,26.95-5.68,22.63-33.7,28.27-49.89,44.02-7.11,23.08,44.25,15.03,37.1,37.48-4.11,12.93-26.74,22.24-57.3,34.77-41.26,16.92-175.18,66.36-134.11,126.26,42.64,62.2,176.35-4.9,277.35-83.02,26.54-20.52,48.38-41.52,66.71-43.76,19.81-10.72,39.45-6.39,61.18,17.41,2.92,3.2,5.72,7.24,8.63,11.88,20.58,32.91,54.63,95.06,121.25,125.46,9.44,4.31,21.45,9.2,34.72,13.01,47.09,13.51,92.42,6.11,122.83-21.95,49.82-45.98,56.71-126.96,1.01-169.79-31.17-23.97-68.96-23.1-123.62-17.8-20.04,1.94-40.59,3.96-61.65,5.83-47.78,4.24-84.92-21.87-84.31-47.9.37-17.54,13.88-33.9,36.7-45.97,61.47-32.5,148.69-41.51,198.9-69.35,17.41-9.66,31.9-24.04,35.32-40.93,9.31-46.78-30.26-55.47-51.97-46.84-21.54,8.59-45.64,23.51-64.18,28.94-34.33,10.05-57.41-1.1-99.2,6.7-35.27,6.58-52.72,20.87-62.25,11.15-2.24-.15-4.28-2.99-8.65-7.5-9.76-10.06-18.59-29-28.71-24.66Z"/>
  <path class="cls-22" d="M1092.84,338.31c-15.28,8.24,8.4,88.99,6.04,121.43-.59,8.1-6.41,11.21-15.29,10.53-21.19,6.62-60.02,7.23-97.19,1.39-6.51-1.02-12.4-2.75-17.41-4.22-32.16-9.46-65.24,5.06-68.42,32.42-3.18,27.35-33.21,34.62-52.25,50.75-7.73,22.14,39.08,15.39,30.52,37.72-4.96,12.94-27.6,22.32-57.33,35.31-42.56,18.6-170.97,70.08-127.07,130.06,47.74,65.24,188.62-7.61,292.4-88.18,28.47-22.11,51.55-44.31,69.58-47.26,21.22-13.04,41.9-9.36,64.45,15.34,3.04,3.33,5.93,7.62,8.93,12.62,20.93,34.82,54.42,102.09,124.63,134.63,9.67,4.48,22.35,9.77,36.49,13.89,48.51,14.14,95.97,7.15,127.85-25.58,47.76-49.04,52.36-132.73-5.07-176.25-33.05-25.05-70.77-21-125.52-14.86-20.6,2.31-41.5,4.36-62.67,5.87-48.21,3.45-85.18-23.64-84.85-50.42.17-18.1,13.54-35.02,36.68-47.06,64.1-33.35,151.78-39.65,202.06-70.05,16.88-10.21,31.06-24.97,34.5-42.66,9.43-49.29-30.02-57.53-52.97-48.47-22.62,8.96-47.97,24.77-66.51,29.03-34.56,7.92-55.16-10.15-99.5-3.26-36.72,5.71-53.19,22.7-62.47,15.78-2.23.82-4.29-1.22-8.96-5.2-10.83-9.22-20.02-29.01-30.64-23.28Z"/>
  <path class="cls-8" d="M1091.11,330.98c-14.97,9.71,11.99,98.39,8.91,132.48-.77,8.54-7.54,9.76-17.97,10.07-25.09.74-69.67.33-109.14-8.33-7.16-1.57-13.51-3.78-18.82-5.6-35.13-12.05-70.95,5.51-71.67,37.88-.71,32.14-32.73,40.96-54.61,57.49-8.36,21.21,33.91,15.76,23.94,37.96-5.81,12.95-28.45,22.44-57.36,35.84-43.85,20.32-166.68,73.74-120.04,133.85,52.93,68.22,200.88-10.32,307.44-93.34,30.41-23.69,54.72-47.09,72.46-50.76,22.63-15.35,44.34-12.33,67.72,13.27,3.16,3.46,6.15,8.01,9.24,13.35,21.28,36.73,54.22,109.12,128,143.8,9.9,4.65,23.26,10.33,38.26,14.77,49.94,14.76,99.67,8.33,132.87-29.21,45.9-51.9,48.01-138.49-11.16-182.71-34.94-26.12-72.58-18.87-127.41-11.91-21.17,2.69-42.41,4.75-63.69,5.91-48.64,2.64-85.44-25.41-85.4-52.95-.02-18.66,13.2-36.13,36.65-48.15,66.73-34.2,154.87-37.72,205.22-70.75,16.35-10.73,30.21-25.9,33.68-44.39,9.55-51.79-29.78-59.58-53.98-50.09-23.7,9.33-50.31,26.04-68.84,29.12-34.8,5.78-52.91-19.18-99.8-13.21-38.17,4.86-53.66,24.52-62.68,20.41-2.22,1.79-4.32.57-9.27-2.89-11.96-8.37-21.48-29.09-32.57-21.9Z"/>
  <path class="cls-11" d="M1089.38,323.66c-14.72,11.12,15.58,107.8,11.79,143.53-.95,8.98-8.68,10.04-20.65,9.61-28.26-1-79.27-6.62-121.1-18.05-7.79-2.13-14.62-4.81-20.23-6.98-38.08-14.69-76.66,6.01-74.91,43.35,1.74,36.98-32.25,47.31-56.97,64.23-8.99,20.27,28.73,16.12,17.36,38.2-6.67,12.95-29.28,22.61-57.39,36.37-45.12,22.09-162.32,77.36-113,137.65,58.19,71.14,213.14-13.04,322.49-98.5,32.34-25.27,57.89-49.88,75.33-54.26,24.03-17.67,46.78-15.3,71,11.2,3.29,3.6,6.36,8.4,9.54,14.08,21.64,38.63,54.02,116.14,131.38,152.97,10.14,4.83,24.16,10.9,40.02,15.65,51.37,15.37,103.51,9.62,137.89-32.83,44.23-54.63,43.65-144.24-17.25-189.17-36.84-27.18-74.39-16.73-129.3-8.97-21.73,3.07-43.31,5.14-64.71,5.95-49.07,1.84-85.69-27.17-85.94-55.47-.22-19.23,12.87-37.24,36.63-49.24,69.37-35.03,157.99-35.73,208.39-71.45,15.84-11.23,29.36-26.83,32.86-46.12,9.68-54.3-29.54-61.64-54.98-51.71-24.78,9.7-52.65,27.29-71.17,29.21-35.06,3.63-50.65-28.18-100.1-23.16-39.61,4.02-54.13,26.35-62.89,25.04-2.21,2.75-4.38,2.37-9.57-.58-13.14-7.48-22.98-29.21-34.49-20.51Z"/>
  <path class="cls-10" d="M1087.65,316.34c-14.52,12.5,19.17,117.21,14.67,154.58-1.14,9.43-9.84,10.32-23.33,9.16-31.53-2.73-88.84-13.61-133.06-27.77-8.43-2.7-15.73-5.85-21.64-8.35-41-17.36-82.38,6.53-78.15,48.82,4.19,41.84-31.77,53.65-59.34,70.96-9.62,19.33,23.54,16.47,10.78,38.44-7.53,12.96-30.1,22.82-57.42,36.9-46.38,23.91-157.92,80.92-105.97,141.44,63.52,73.99,225.4-15.77,337.53-103.65,34.27-26.86,61.06-52.67,78.21-57.76,25.44-19.98,49.23-18.26,74.27,9.13,3.41,3.73,6.58,8.79,9.85,14.81,22,40.53,53.82,123.15,134.75,162.14,10.37,5,25.07,11.46,41.79,16.53,52.81,15.98,107.51,11.01,142.91-36.46,42.72-57.28,39.28-149.98-23.34-195.64-38.74-28.24-76.2-14.56-131.2-6.03-22.3,3.46-44.22,5.53-65.74,5.98-49.5,1.04-85.95-28.94-86.49-58-.42-19.79,12.54-38.35,36.6-50.33,72.02-35.85,161.14-33.67,211.55-72.15,15.33-11.71,28.52-27.76,32.04-47.85,9.8-56.8-29.3-63.7-55.99-53.34-25.85,10.07-55,28.53-73.49,29.3-35.33,1.46-48.39-37.17-100.4-33.11-41.06,3.21-54.6,28.18-63.11,29.67-2.2,3.72-4.46,4.2-9.88,1.72-14.36-6.55-24.53-29.37-36.42-19.13Z"/>
  <path class="cls-7" d="M1085.92,309.02c-14.36,13.87,22.76,126.62,17.54,165.63-1.32,9.87-11.03,10.61-26.02,8.7-34.87-4.45-98.36-20.61-145.01-37.49-9.05-3.28-16.83-6.89-23.05-9.73-43.89-20.04-88.1,7.07-81.39,54.28,6.64,46.72-31.28,60-61.7,77.7-10.24,18.4,18.35,16.83,4.2,38.68-8.39,12.96-30.9,23.06-57.45,37.43-47.62,25.79-153.47,84.45-98.94,145.23,68.9,76.79,237.65-18.49,352.58-108.81,36.2-28.45,64.23-55.45,81.08-61.26,26.85-22.3,51.67-21.23,77.54,7.06,3.53,3.86,6.79,9.17,10.15,15.54,22.37,42.43,53.63,130.15,138.13,171.31,10.6,5.16,25.97,12.03,43.56,17.41,54.24,16.59,111.65,12.46,147.93-40.09,41.34-59.89,34.91-155.72-29.43-202.1-40.64-29.3-78-12.38-133.09-3.08-22.86,3.86-45.12,5.92-66.76,6.02-49.93.23-86.21-30.71-87.03-60.52-.61-20.35,12.21-39.45,36.58-51.42,74.66-36.67,164.32-31.56,214.71-72.85,14.84-12.16,27.67-28.68,31.22-49.58,9.92-59.3-29.06-65.76-56.99-54.96-26.93,10.44-57.35,29.77-75.82,29.39-35.6-.73-46.14-46.15-100.7-43.06-42.51,2.4-55.07,30-63.32,34.3-2.19,4.69-4.54,6.04-10.19,4.03-15.6-5.56-26.13-29.55-38.35-17.75Z"/>
  <path class="cls-13" d="M1084.19,301.7c-14.25,15.23,26.34,136.02,20.42,176.69-1.5,10.31-12.23,10.91-28.7,8.24-38.26-6.18-107.85-27.63-156.97-47.22-9.67-3.86-17.93-7.93-24.47-11.1-46.77-22.75-93.82,7.63-84.64,59.75,9.09,51.62-30.8,66.34-64.06,84.44-10.87,17.46,13.16,17.18-2.38,38.92-9.26,12.96-31.68,23.33-57.48,37.97-48.83,27.71-149,87.93-91.9,149.03,74.33,79.53,249.91-21.23,367.63-113.97,38.13-30.04,68.75-55.52,83.96-64.76,32.03-19.46,54.12-24.2,80.81,4.99,3.65,3.99,7.01,9.56,10.46,16.27,22.75,44.32,53.44,137.14,141.51,180.48,10.84,5.33,26.88,12.59,45.32,18.29,55.67,17.2,115.95,13.97,152.95-43.72,40.07-62.48,30.53-161.45-35.52-208.56-42.54-30.34-79.8-10.18-134.98-.14-23.43,4.26-46.03,6.31-67.78,6.06-50.36-.58-86.47-32.47-87.58-63.05-.81-20.91,11.88-40.55,36.55-52.51,77.32-37.47,167.55-29.39,217.88-73.56,14.36-12.61,26.82-29.61,30.4-51.31,10.04-61.81-28.82-67.82-57.99-56.59-28.01,10.81-59.71,30.99-78.15,29.48-35.87-2.94-43.88-55.1-101-53.02-43.95,1.6-55.54,31.83-63.54,38.94-2.18,5.66-4.63,7.91-10.49,6.34-16.85-4.51-27.76-29.74-40.28-16.36Z"/>
  <path class="cls-17" d="M1082.46,294.37c-14.16,16.6,29.84,145.42,23.3,187.74-1.71,10.75-13.43,11.2-31.38,7.79-41.68-7.92-117.32-34.65-168.93-56.94-10.28-4.44-19.03-8.97-25.88-12.48-49.63-25.47-99.53,8.19-87.88,65.21,11.55,56.52-30.32,72.69-66.42,91.17-11.5,16.52,7.96,17.52-8.97,39.16-10.13,12.95-32.45,23.63-57.51,38.5-50.01,29.69-144.51,91.39-84.87,152.82,79.81,82.21,262.15-23.96,382.67-119.13,40.06-31.63,71.93-58.54,86.84-68.26,33.56-21.88,56.56-27.17,84.08,2.92,3.77,4.13,7.23,9.94,10.76,17,23.13,46.22,53.26,144.13,144.88,189.65,11.07,5.5,27.79,13.15,47.09,19.17,57.11,17.8,120.38,15.53,157.97-47.34,38.91-65.08,26.15-167.17-41.61-215.02-44.45-31.39-81.6-7.97-136.87,2.8-23.99,4.68-46.94,6.7-68.8,6.1-50.79-1.4-86.73-34.24-88.12-65.57-1.01-21.47,11.55-41.65,36.53-53.61,79.97-38.27,170.83-27.18,221.04-74.26,13.9-13.04,25.98-30.54,29.59-53.04,10.16-64.31-28.59-69.87-59-58.21-29.08,11.18-62.06,32.2-80.47,29.57-36.14-5.18-41.63-64.05-101.29-62.97-45.4.82-57.83,32.47-63.75,43.57-3.28,6.16-4.71,9.79-10.8,8.64-18.09-3.4-29.43-29.95-42.2-14.98Z"/>
  <path class="cls-5" d="M1080.73,287.05c-14.11,17.98,33.43,154.82,26.17,198.79-1.89,11.19-14.65,11.49-34.06,7.33-45.14-9.66-126.76-41.68-180.88-66.66-10.89-5.03-20.12-10.01-27.29-13.86-52.48-28.19-105.24,8.76-91.12,70.68,14.01,61.44-29.83,79.03-68.78,97.91-12.13,15.59,2.75,17.86-15.55,39.4-11,12.95-33.21,23.94-57.54,39.03-51.15,31.71-140,94.81-77.83,156.62,85.32,84.84,274.4-26.7,397.72-124.29,41.98-33.22,75.08-61.57,89.71-71.76,35.02-24.39,59-30.14,87.35.85,3.9,4.26,7.45,10.33,11.07,17.74,23.51,48.11,53.08,151.11,148.26,198.82,11.31,5.67,28.7,13.71,48.86,20.05,58.54,18.4,124.94,17.12,162.99-50.97,37.82-67.7,21.77-172.89-47.69-221.48-46.36-32.43-83.39-5.74-138.77,5.75-24.55,5.09-47.84,7.09-69.82,6.14-51.22-2.22-86.98-36.01-88.67-68.1-1.2-22.04,11.23-42.75,36.5-54.7,82.63-39.06,174.17-24.91,224.2-74.96,13.45-13.45,25.13-31.47,28.77-54.77,10.28-66.82-28.35-71.93-60-59.84-30.16,11.55-64.41,33.41-82.8,29.66-36.4-7.42-39.37-72.98-101.59-72.92-46.85.04-58.15,34.64-63.96,48.2-3.11,7.26-4.79,11.68-11.11,10.95-19.32-2.25-31.13-30.16-44.13-13.6Z"/>
  <path class="cls-18" d="M1079,279.73c-14.08,19.37,37.02,164.23,29.05,209.84-2.07,11.63-15.87,11.77-36.75,6.87-48.62-11.41-136.19-48.71-192.84-76.38-11.5-5.62-21.22-11.05-28.7-15.23-55.31-30.93-110.95,9.33-94.36,76.15,16.47,66.36-29.35,85.37-71.14,104.65-12.75,14.65-2.45,18.2-22.13,39.64-11.87,12.94-33.95,24.28-57.57,39.56-52.25,33.8-135.47,98.2-70.8,160.41,90.87,87.42,286.45-29.68,412.76-129.45,43.84-34.9,78.21-64.6,92.59-75.26,36.39-26.97,61.45-33.11,90.62-1.22,4.02,4.39,7.67,10.71,11.37,18.47,23.89,50,52.9,158.08,151.64,207.99,11.54,5.84,29.6,14.27,50.62,20.93,59.98,19,129.63,18.73,168-54.6,36.81-70.34,17.38-178.6-53.78-227.94-48.27-33.47-85.18-3.5-140.66,8.69-25.1,5.52-48.75,7.47-70.84,6.18-51.65-3.03-87.24-37.78-89.21-70.62-1.4-22.6,10.9-43.84,36.48-55.79,85.3-39.83,177.57-22.61,227.37-75.66,13.01-13.86,24.28-32.39,27.95-56.5,10.41-69.32-28.11-73.99-61.01-61.46-31.24,11.92-66.75,34.6-85.13,29.75-36.66-9.69-37.12-81.9-101.89-82.87-48.31-.73-58.45,36.7-64.18,52.83-2.96,8.33-4.86,13.59-11.41,13.26-20.53-1.05-32.86-30.36-46.06-12.22Z"/>
  <path class="cls-15" d="M1077.27,272.41c-14.07,20.77,40.6,173.64,31.93,220.89-2.25,12.07-17.1,12.06-39.43,6.42-52.11-13.16-145.6-55.74-204.8-86.11-12.1-6.2-22.31-12.09-30.11-16.61-58.13-33.67-116.66,9.91-97.61,81.61,18.94,71.28-28.87,91.72-73.51,111.38-13.38,13.72-7.66,18.53-28.71,39.88-12.75,12.93-34.67,24.64-57.6,40.09-53.3,35.94-130.94,101.56-63.76,164.21,96.45,89.94,298.71-32.4,427.81-134.61,45.77-36.49,81.31-67.63,95.46-78.76,37.67-29.62,63.89-36.08,93.9-3.29,4.14,4.52,7.89,11.1,11.68,19.2,24.28,51.89,52.73,165.05,155.01,217.16,11.78,6,30.51,14.83,52.39,21.81,61.42,19.59,134.42,20.36,173.02-58.22,35.86-73.01,12.99-184.31-59.87-234.4-50.19-34.5-86.97-1.25-142.55,11.63-25.66,5.95-49.66,7.86-71.87,6.21-52.08-3.86-87.5-39.54-89.76-73.15-1.6-23.16,10.58-44.93,36.45-56.88,87.97-40.6,181.02-20.26,230.53-76.36,12.59-14.26,23.44-33.32,27.13-58.23,10.53-71.83-27.87-76.05-62.01-63.09-32.32,12.29-69.09,35.79-87.45,29.84-36.9-11.97-34.88-90.81-102.19-92.83-49.76-1.49-58.74,38.69-64.39,57.46-2.82,9.36-4.91,15.5-11.72,15.56-21.72.18-34.6-30.57-47.98-10.83Z"/>
  <path class="cls-9" d="M1075.54,265.09c-14.08,22.18,44.19,183.04,34.8,231.94-2.43,12.51-18.33,12.34-42.11,5.96-55.62-14.92-154.99-62.78-216.75-95.83-12.7-6.8-23.4-13.13-31.52-17.99-60.94-36.42-122.36,10.49-100.85,87.08,21.41,76.21-32.46,90.32-75.87,118.12-15.97,10.23-12.87,18.86-35.29,40.12-13.62,12.91-35.38,25-57.63,40.63-54.31,38.13-126.4,104.9-56.73,168,102.05,92.42,310.97-35.12,442.85-139.77,47.7-38.08,84.39-70.66,98.34-82.26,38.87-32.33,66.34-39.04,97.17-5.35,4.26,4.66,8.11,11.48,11.98,19.93,24.67,53.78,52.56,172.01,158.39,226.34,12.02,6.17,31.42,15.38,54.16,22.69,62.86,20.19,139.31,22,178.04-61.85,34.97-75.71,8.6-190.01-65.96-240.86-52.1-35.53-88.75,1.01-144.45,14.58-26.21,6.39-50.56,8.24-72.89,6.25-52.51-4.68-87.76-41.31-90.3-75.67-1.79-23.72,10.25-46.02,36.43-57.97,90.64-41.36,184.54-17.89,233.69-77.06,12.18-14.66,22.59-34.25,26.31-59.96,10.65-74.33-27.63-78.11-63.02-64.71-33.39,12.66-71.42,36.98-89.78,29.93-37.14-14.26-32.63-99.71-102.49-102.78-51.22-2.25-59.03,40.64-64.61,62.09-2.7,10.38-4.96,17.42-12.03,17.87-22.89,1.44-36.37-30.77-49.91-9.45Z"/>
  <path class="cls-3" d="M1073.81,257.76c-14.1,23.6,47.78,192.45,37.68,243-2.62,12.95-19.56,12.62-44.79,5.5-59.14-16.68-164.37-69.81-228.71-105.55-13.29-7.39-24.49-14.17-32.93-19.36-63.75-39.17-128.06,11.07-104.09,92.54,23.87,81.14-31.44,97.25-78.23,124.85-16.22,9.57-18.08,19.18-41.87,40.36-14.49,12.9-36.07,25.38-57.66,41.16-55.26,40.39-121.85,108.22-49.69,171.79,107.68,94.86,323.23-37.84,457.9-144.92,49.63-39.67,87.45-73.69,101.22-85.76,40-35.08,68.78-42.01,100.44-7.42,4.38,4.79,8.33,11.87,12.29,20.66,25.07,55.67,52.39,178.97,161.77,235.51,12.25,6.33,32.33,15.94,55.92,23.57,64.3,20.78,144.3,23.64,183.06-65.48,34.12-78.45,4.21-195.72-72.05-247.32-54.02-36.56-90.53,3.28-146.34,17.52-26.76,6.83-51.47,8.63-73.91,6.29-52.94-5.51-88.01-43.08-90.85-78.2-1.99-24.28,9.93-47.11,36.4-59.06,93.31-42.12,188.13-15.49,236.86-77.76,11.78-15.06,21.74-35.18,25.49-61.69,10.77-76.84-27.39-80.16-64.02-66.34-34.47,13.03-73.75,38.16-92.11,30.02-37.35-16.56-30.39-108.6-102.79-112.73-52.68-3.01-59.32,42.55-64.82,66.72-2.59,11.38-5.01,19.35-12.33,20.18-24.02,2.72-38.15-30.97-51.84-8.07Z"/>
  <path class="cls-24" d="M1072.08,250.44c-14.13,25.03,51.37,201.85,40.56,254.05-2.8,13.4-20.8,12.9-47.47,5.05-62.67-18.45-173.75-76.84-240.66-115.27-13.89-7.98-25.58-15.22-34.35-20.74-66.54-41.92-133.77,11.66-107.33,98.01,26.34,86.07-30.39,104.37-80.59,131.59-16.49,8.94-23.28,19.5-48.45,40.6-15.37,12.88-36.75,25.77-57.69,41.69-56.15,42.7-117.31,111.52-42.66,175.59,113.32,97.26,335.49-40.56,472.94-150.08,51.56-41.26,90.5-76.7,104.09-89.26,41.04-37.89,71.22-44.98,103.71-9.49,4.5,4.92,8.55,12.25,12.6,21.39,25.46,57.56,52.22,185.93,165.14,244.68,12.49,6.5,33.25,16.45,57.69,24.45,65.77,21.25,149.37,25.28,188.08-69.11,33.32-81.22-.19-201.41-78.14-253.78-55.94-37.58-92.3,5.56-148.23,20.46-27.31,7.28-52.37,9.01-74.93,6.33-53.37-6.34-88.27-44.84-91.39-80.73-2.19-24.85,9.61-48.2,36.38-60.15,95.99-42.86,191.78-13.06,240.02-78.46,11.4-15.45,20.9-36.11,24.68-63.42,10.89-79.34-27.15-82.22-65.03-67.96-35.55,13.4-76.07,39.33-94.43,30.1-37.56-18.87-28.16-117.49-103.09-122.68-54.15-3.76-59.62,44.45-65.03,71.35-2.49,12.38-5.04,21.27-12.64,22.48-25.14,4.01-39.94-31.17-53.76-6.68Z"/>
  <path class="cls-19" d="M1070.35,243.12c-14.17,26.47,54.95,211.26,43.43,265.1-2.98,13.84-22.03,13.18-50.16,4.59-66.21-20.22-183.11-83.86-252.62-125-14.48-8.57-26.67-16.26-35.76-22.11-69.33-44.68-139.47,12.24-110.58,103.48,28.81,91-29.31,111.66-82.95,138.33-16.8,8.35-28.49,19.82-55.03,40.84-16.24,12.86-37.41,26.16-57.72,42.22-56.98,45.07-112.76,114.8-35.62,179.38,118.99,99.62,347.75-43.28,487.99-155.24,53.48-42.85,93.52-79.72,106.97-92.76,42-40.73,73.67-47.95,106.98-11.56,4.63,5.05,8.77,12.64,12.9,22.12,25.86,59.45,52.18,192.64,168.52,253.85,12.74,6.64,34.16,17.01,59.46,25.33,67.21,21.86,154.51,26.91,193.1-72.73,32.54-84.03-4.58-207.11-84.22-260.24-57.87-38.6-94.07,7.85-150.12,23.41-27.86,7.73-53.27,9.35-75.95,6.37-53.78-7.26-88.53-46.61-91.93-83.25-2.39-25.41,9.28-49.28,36.36-61.24,98.67-43.6,195.5-10.62,243.18-79.16,11.02-15.84,20.05-37.03,23.86-65.15,11.01-81.85-26.92-84.28-66.03-69.59-36.62,13.77-78.38,40.51-96.76,30.19-37.75-21.18-25.92-126.36-103.39-132.63-55.61-4.5-59.93,46.33-65.25,75.98-2.4,13.36-5.06,23.2-12.95,24.79-26.23,5.3-41.74-31.36-55.69-5.3Z"/>
  <path class="cls-6" d="M1068.62,235.8c-14.22,27.92,58.54,220.67,46.31,276.15-3.16,14.28-23.27,13.45-52.84,4.13-69.75-21.99-192.47-90.89-264.58-134.72-15.08-9.16-27.76-17.3-37.17-23.49-72.12-47.44-145.16,12.83-113.82,108.94,31.29,95.93-28.22,119.14-85.31,145.06-17.14,7.78-33.7,20.14-61.62,41.08-17.12,12.84-38.05,26.56-57.75,42.75-57.74,47.49-108.21,118.07-28.59,183.18,124.66,101.94,360.01-46.01,503.04-160.4,55.41-44.43,96.53-82.72,109.84-96.26,42.89-43.61,76.11-50.92,110.25-13.63,4.75,5.19,9.01,13.01,13.21,22.86,26.37,61.29,51.99,199.64,171.89,263.02,12.97,6.81,35.07,17.58,61.22,26.21,68.64,22.47,159.72,28.54,198.12-76.36,31.8-86.87-9.08-212.65-90.31-266.7-59.86-39.51-95.83,10.14-152.02,26.35-28.4,8.19-54.18,9.74-76.97,6.41-54.21-8.07-88.79-48.38-92.48-85.78-2.58-25.97,8.96-50.37,36.33-62.34,101.36-44.33,199.27-8.17,246.34-79.87,10.66-16.24,19.2-37.96,23.04-66.88,11.13-84.35-26.68-86.34-67.04-71.21-37.7,14.14-80.69,41.68-99.09,30.28-37.93-23.5-23.69-135.24-103.69-142.59-57.08-5.24-60.24,48.2-65.46,80.61-2.31,14.35-5.08,25.12-13.25,27.1-27.31,6.6-43.55-31.54-57.62-3.92Z"/>
  <path class="cls-14" d="M1066.89,228.48c-14.27,29.37,62.13,230.07,49.19,287.2-3.35,14.72-24.51,13.73-55.52,3.68-73.3-23.76-201.82-97.91-276.53-144.44-15.67-9.75-28.85-18.34-38.58-24.87-74.9-50.2-150.99,13.46-117.06,114.41,33.63,100.91-27.13,126.78-87.67,151.8-17.53,7.24-38.9,20.45-68.2,41.32-17.99,12.82-38.68,26.96-57.77,43.29-58.44,49.97-103.66,121.32-21.55,186.97,130.35,104.23,372.26-48.73,518.08-165.56,57.34-46.02,99.52-85.71,112.72-99.76,43.72-46.52,78.56-53.89,113.52-15.7,4.87,5.32,9.23,13.4,13.51,23.59,26.74,63.2,51.8,206.64,175.27,272.19,13.21,6.98,35.97,18.14,62.99,27.09,70.07,23.09,164.98,30.16,203.14-79.99,31.09-89.74-13.45-218.39-96.4-273.16-61.77-40.56-97.59,12.44-153.91,29.29-28.94,8.66-55.08,10.13-78,6.45-54.64-8.88-89.05-50.15-93.02-88.3-2.78-26.53,8.66-51.4,36.31-63.43,104.12-44.87,203.11-5.71,249.51-80.57,10.31-16.64,18.35-38.89,22.22-68.61,11.26-86.86-26.44-88.4-68.04-72.84-38.78,14.51-82.99,42.86-101.42,30.37-38.1-25.81-21.46-144.1-103.99-152.54-58.55-5.98-60.55,50.05-65.68,85.24-2.23,15.33-5.09,27.05-13.56,29.4-28.37,7.89-45.36-31.73-59.54-2.53Z"/>
  <path class="cls-2" d="M1065.16,221.15c-14.33,30.84,65.72,239.48,52.06,298.25-3.53,15.16-25.75,14-58.2,3.22-76.85-25.54-211.16-104.94-288.49-154.16-16.26-10.35-29.92-19.4-39.99-26.24-77.57-53.11-156.62,14.03-120.3,119.87,36.17,105.83-26.05,134.56-90.04,158.54-17.95,6.73-44.13,20.73-74.78,41.56-18.87,12.77-39.3,27.36-57.8,43.82-59.05,52.51-99.11,124.56-14.52,190.76,136.06,106.49,384.52-51.45,533.13-170.72,59.27-47.61,102.5-88.7,115.59-103.26,44.48-49.44,81-56.86,116.8-17.77,4.99,5.45,9.45,13.79,13.82,24.32,27.1,65.1,51.62,213.64,178.65,281.36,13.44,7.15,36.88,18.7,64.76,27.97,71.51,23.7,170.31,31.77,208.16-83.61,30.4-92.65-17.81-224.13-102.49-279.62-63.67-41.61-99.35,14.75-155.8,32.24-29.48,9.13-55.99,10.52-79.02,6.48-55.07-9.7-89.3-51.91-93.57-90.83-2.98-27.09,8.33-52.5,36.28-64.52,106.77-45.67,207.01-3.25,252.67-81.27,9.97-17.04,17.51-39.82,21.4-70.34,11.38-89.36-26.2-90.46-69.05-74.46-39.85,14.88-85.29,44.03-103.74,30.46-38.26-28.13-19.25-152.85-104.29-162.49-60.03-6.64-60.87,51.91-65.89,89.88-2.16,16.31-5.1,28.97-13.87,31.71-29.42,9.19-47.18-31.9-61.47-1.15Z"/>
  <path class="cls-12" d="M1335.86,918.83c48.38,25.89,227.42,109.73,279.7-58.39,29.73-95.59-22.18-229.87-108.58-286.08-65.57-42.66-101.1,17.07-157.7,35.18-152.14,48.69-223.6-116.04-137.9-152.44,132.93-56.46,254.24,23.11,276.42-154.04,22.17-177.15-137.71-15.09-176.12-45.54-38.41-30.44-17.01-161.82-104.59-172.44-87.58-10.62-49.82,118.04-80.28,128.52-30.45,10.49-49.01-32.08-63.4.23-14.39,32.31,69.31,248.89,54.94,309.3-14.37,60.42-322.29-133.02-402.74-188.74-80.45-55.72-162.25,14.6-123.55,125.34,38.71,110.74-25.01,142.48-92.4,165.27-67.39,22.8-302.53,161.19-146.68,280.71,199.08,152.66,621.47-230.24,666.64-282.63,45.18-52.39,83.45-59.83,120.07-19.84,36.62,39.99,44.36,234.34,196.14,315.58Z"/>
</svg>